<?xml version="1.0" encoding="UTF-8"?>
<!DOCTYPE svg PUBLIC "-//W3C//DTD SVG 1.1//EN" "http://www.w3.org/Graphics/SVG/1.1/DTD/svg11.dtd">
<svg xmlns="http://www.w3.org/2000/svg" version="1.1" width="75px" height="30px" style="shape-rendering:geometricPrecision; text-rendering:geometricPrecision; image-rendering:optimizeQuality; fill-rule:evenodd; clip-rule:evenodd" xmlns:xlink="http://www.w3.org/1999/xlink">
<g><path style="opacity:0.005" fill="#fff6f6" d="M 31.5,-0.5 C 32.1667,-0.5 32.8333,-0.5 33.5,-0.5C 33.1667,0.166667 32.8333,0.833333 32.5,1.5C 30.3023,1.59121 29.9689,0.924541 31.5,-0.5 Z"/></g>
<g><path style="opacity:0.007" fill="#fff6f6" d="M 40.5,-0.5 C 41.1667,-0.5 41.8333,-0.5 42.5,-0.5C 44.0311,0.924541 43.6977,1.59121 41.5,1.5C 41.1667,0.833333 40.8333,0.166667 40.5,-0.5 Z"/></g>
<g><path style="opacity:0.802" fill="#f8d6c4" d="M 41.5,1.5 C 41.5,1.83333 41.5,2.16667 41.5,2.5C 40.209,2.26269 39.209,2.59603 38.5,3.5C 37.5,4.83333 36.5,4.83333 35.5,3.5C 34.791,2.59603 33.791,2.26269 32.5,2.5C 32.5,2.16667 32.5,1.83333 32.5,1.5C 35.5,0.166667 38.5,0.166667 41.5,1.5 Z"/></g>
<g><path style="opacity:0.719" fill="#fad8c6" d="M 32.5,2.5 C 33.791,2.26269 34.791,2.59603 35.5,3.5C 32.075,3.36682 31.7417,4.03349 34.5,5.5C 32.8333,6.83333 31.1667,6.83333 29.5,5.5C 29.5,3.5 30.5,2.5 32.5,2.5 Z"/></g>
<g><path style="opacity:0.655" fill="#f7d3c1" d="M 35.5,3.5 C 36.5,4.83333 37.5,4.83333 38.5,3.5C 42.2861,3.63801 42.2861,4.30468 38.5,5.5C 37.1667,5.5 35.8333,5.5 34.5,5.5C 31.7417,4.03349 32.075,3.36682 35.5,3.5 Z"/></g>
<g><path style="opacity:0.991" fill="#f7d3c2" d="M 28.5,6.5 C 28.5,5.83333 28.8333,5.5 29.5,5.5C 31.1667,6.83333 32.8333,6.83333 34.5,5.5C 34.1667,6.16667 33.8333,6.83333 33.5,7.5C 32.0687,8.78041 31.4021,10.4471 31.5,12.5C 31.1667,13.8333 30.8333,13.8333 30.5,12.5C 30.405,10.2143 29.7384,8.2143 28.5,6.5 Z"/></g>
<g><path style="opacity:1" fill="#fad8c7" d="M 38.5,3.5 C 39.209,2.59603 40.209,2.26269 41.5,2.5C 42.4916,2.32842 43.1583,2.66175 43.5,3.5C 43.5,5.5 42.5,6.5 40.5,6.5C 39.5084,6.67158 38.8417,6.33825 38.5,5.5C 42.2861,4.30468 42.2861,3.63801 38.5,3.5 Z"/></g>
<g><path style="opacity:0.016" fill="#ffbba0" d="M 48.5,9.5 C 48.1667,9.5 47.8333,9.5 47.5,9.5C 47.7373,8.20895 47.404,7.20895 46.5,6.5C 46.3932,4.62143 46.8932,4.2881 48,5.5C 48.49,6.79323 48.6567,8.12656 48.5,9.5 Z"/></g>
<g><path style="opacity:0.719" fill="#f7d3c1" d="M 43.5,3.5 C 44.4013,4.29049 45.0679,5.29049 45.5,6.5C 43.4865,8.90171 43.1531,11.5684 44.5,14.5C 43.609,13.8902 42.609,13.5569 41.5,13.5C 42.8458,11.2082 42.5124,9.20823 40.5,7.5C 40.5,7.16667 40.5,6.83333 40.5,6.5C 42.5,6.5 43.5,5.5 43.5,3.5 Z"/></g>
<g><path style="opacity:0.702" fill="#f7d2c0" d="M 33.5,7.5 C 35.8333,7.5 38.1667,7.5 40.5,7.5C 40.5,8.16667 40.1667,8.5 39.5,8.5C 35.6305,9.28674 34.9638,10.9534 37.5,13.5C 38.1835,13.1373 38.8501,12.8039 39.5,12.5C 38.0821,14.3079 36.0821,14.9746 33.5,14.5C 34.8333,12.1667 34.8333,9.83333 33.5,7.5 Z"/></g>
<g><path style="opacity:0.692" fill="#fad8c6" d="M 39.5,8.5 C 39.5,9.83333 39.5,11.1667 39.5,12.5C 38.8501,12.8039 38.1835,13.1373 37.5,13.5C 34.9638,10.9534 35.6305,9.28674 39.5,8.5 Z"/></g>
<g><path style="opacity:0.005" fill="#fefffe" d="M 48.5,9.5 C 49.8333,10.5 49.8333,11.5 48.5,12.5C 48.5,11.5 48.5,10.5 48.5,9.5 Z"/></g>
<g><path style="opacity:0.016" fill="#ffdfde" d="M 25.5,12.5 C 24.4265,11.7494 24.2599,10.7494 25,9.5C 25.4828,10.448 25.6495,11.448 25.5,12.5 Z"/></g>
<g><path style="opacity:0.969" fill="#fbdbc8" d="M 28.5,6.5 C 29.7384,8.2143 30.405,10.2143 30.5,12.5C 30.1667,12.5 29.8333,12.5 29.5,12.5C 27.7091,11.7721 27.0424,10.7721 27.5,9.5C 27.2627,8.20895 27.596,7.20895 28.5,6.5 Z"/></g>
<g><path style="opacity:1" fill="#fcdac5" d="M 45.5,6.5 C 45.8333,6.5 46.1667,6.5 46.5,6.5C 46.2627,7.79105 46.596,8.79105 47.5,9.5C 47.5,10.5 47.5,11.5 47.5,12.5C 46.596,13.209 46.2627,14.209 46.5,15.5C 46.1667,15.5 45.8333,15.5 45.5,15.5C 44.8333,15.5 44.5,15.1667 44.5,14.5C 43.1531,11.5684 43.4865,8.90171 45.5,6.5 Z"/></g>
<g><path style="opacity:0.016" fill="#f3d2d1" d="M 25.5,12.5 C 25.8333,12.5 26.1667,12.5 26.5,12.5C 26.1667,16.5 25.8333,16.5 25.5,12.5 Z"/></g>
<g><path style="opacity:0.473" fill="#fad7c3" d="M 27.5,9.5 C 27.0424,10.7721 27.7091,11.7721 29.5,12.5C 29.7373,13.791 29.404,14.791 28.5,15.5C 27.8333,14.5 27.1667,13.5 26.5,12.5C 26.2627,11.209 26.596,10.209 27.5,9.5 Z"/></g>
<g><path style="opacity:0.811" fill="#f8d5c2" d="M 29.5,12.5 C 29.8333,12.5 30.1667,12.5 30.5,12.5C 30.8333,13.8333 31.1667,13.8333 31.5,12.5C 32.1667,13.1667 32.8333,13.8333 33.5,14.5C 34.9899,16.2798 36.9899,16.9465 39.5,16.5C 39.5,16.8333 39.5,17.1667 39.5,17.5C 36.7718,17.1706 34.4385,17.8372 32.5,19.5C 31.8333,19.5 31.1667,19.5 30.5,19.5C 29.8333,18.1667 29.1667,16.8333 28.5,15.5C 29.404,14.791 29.7373,13.791 29.5,12.5 Z"/></g>
<g><path style="opacity:0.962" fill="#f9d6c3" d="M 41.5,13.5 C 42.609,13.5569 43.609,13.8902 44.5,14.5C 44.5,15.1667 44.8333,15.5 45.5,15.5C 44.8333,16.8333 44.1667,18.1667 43.5,19.5C 42.8333,19.5 42.1667,19.5 41.5,19.5C 40.209,19.7373 39.209,19.404 38.5,18.5C 39.1667,18.5 39.5,18.1667 39.5,17.5C 39.5,17.1667 39.5,16.8333 39.5,16.5C 40.1667,15.5 40.8333,14.5 41.5,13.5 Z"/></g>
<g><path style="opacity:0.004" fill="#ffd6c7" d="M 47.5,12.5 C 47.8333,12.5 48.1667,12.5 48.5,12.5C 48.8799,14.698 48.2132,16.3646 46.5,17.5C 46.5,16.8333 46.5,16.1667 46.5,15.5C 47.404,14.791 47.7373,13.791 47.5,12.5 Z"/></g>
<g><path style="opacity:0.02" fill="#fecccb" d="M 46.5,17.5 C 45.8333,18.1667 45.8333,18.1667 46.5,17.5 Z"/></g>
<g><path style="opacity:0.843" fill="#f5d2bf" d="M 38.5,18.5 C 39.209,19.404 40.209,19.7373 41.5,19.5C 41.5,19.8333 41.5,20.1667 41.5,20.5C 39.5893,20.9909 37.5893,20.9909 35.5,20.5C 38.0972,20.2792 38.0972,19.7792 35.5,19C 36.448,18.5172 37.448,18.3505 38.5,18.5 Z"/></g>
<g><path style="opacity:0.892" fill="#fbdbc7" d="M 39.5,17.5 C 39.5,18.1667 39.1667,18.5 38.5,18.5C 37.448,18.3505 36.448,18.5172 35.5,19C 38.0972,19.7792 38.0972,20.2792 35.5,20.5C 34.8333,20.8333 34.1667,21.1667 33.5,21.5C 33.1667,20.8333 32.8333,20.1667 32.5,19.5C 34.4385,17.8372 36.7718,17.1706 39.5,17.5 Z"/></g>
<g><path style="opacity:0.012" fill="#ffcccb" d="M 30.5,19.5 C 30.8333,20.1667 31.1667,20.8333 31.5,21.5C 30.1667,21.5 28.8333,21.5 27.5,21.5C 28.2905,20.5987 29.2905,19.9321 30.5,19.5 Z"/></g>
<g><path style="opacity:0.012" fill="#f3c5b1" d="M 43.5,19.5 C 45.0858,20.1481 46.7525,20.6481 48.5,21C 45.9615,21.7958 43.6282,21.6291 41.5,20.5C 42.4916,20.6716 43.1583,20.3382 43.5,19.5 Z"/></g>
<g><path style="opacity:0.008" fill="#7f807f" d="M 23.5,23.5 C 22.8333,22.1667 22.8333,22.1667 23.5,23.5 Z"/></g>
<g><path style="opacity:0.29" fill="#f6d3c0" d="M 37.5,22.5 C 39.8333,22.5 42.1667,22.5 44.5,22.5C 45.1098,23.391 45.4431,24.391 45.5,25.5C 42.8333,25.5 40.1667,25.5 37.5,25.5C 37.5,24.5 37.5,23.5 37.5,22.5 Z"/></g>
<g><path style="opacity:0.261" fill="#f6d8c5" d="M 27.5,21.5 C 27.5,22.1667 27.8333,22.5 28.5,22.5C 28.2178,23.7777 27.5511,24.7777 26.5,25.5C 26.1667,25.5 25.8333,25.5 25.5,25.5C 25.6716,24.5084 25.3382,23.8417 24.5,23.5C 24.8212,21.9519 25.8212,21.2852 27.5,21.5 Z"/></g>
<g><path style="opacity:0.279" fill="#f9d8c6" d="M 44.5,22.5 C 46.5542,22.3653 48.2209,23.032 49.5,24.5C 48.4324,25.4345 47.099,25.7678 45.5,25.5C 45.4431,24.391 45.1098,23.391 44.5,22.5 Z"/></g>
<g><path style="opacity:0.008" fill="#ffd5d2" d="M 50.5,24.5 C 50.1667,24.5 49.8333,24.5 49.5,24.5C 49.8333,21.8333 50.1667,21.8333 50.5,24.5 Z"/></g>
<g><path style="opacity:0.008" fill="#ffac81" d="M 23.5,23.5 C 23.8333,23.5 24.1667,23.5 24.5,23.5C 24.5,24.1667 24.5,24.8333 24.5,25.5C 23.6618,25.1583 23.3284,24.4916 23.5,23.5 Z"/></g>
<g><path style="opacity:0.145" fill="#f8cfbe" d="M 28.5,22.5 C 29.1667,22.5 29.8333,22.5 30.5,22.5C 31.6935,23.2719 32.6935,24.2719 33.5,25.5C 33.5,25.8333 33.5,26.1667 33.5,26.5C 33.1667,26.5 32.8333,26.5 32.5,26.5C 30.7354,25.5386 28.7354,25.2053 26.5,25.5C 27.5511,24.7777 28.2178,23.7777 28.5,22.5 Z"/></g>
<g><path style="opacity:0.128" fill="#f8d6c6" d="M 31.5,21.5 C 32.1667,21.5 32.8333,21.5 33.5,21.5C 34.5676,22.4345 35.901,22.7678 37.5,22.5C 37.5,23.5 37.5,24.5 37.5,25.5C 36.1667,25.5 34.8333,25.5 33.5,25.5C 32.6935,24.2719 31.6935,23.2719 30.5,22.5C 31.1667,22.5 31.5,22.1667 31.5,21.5 Z"/></g>
<g><path style="opacity:0.004" fill="#fe0000" d="M 50.5,24.5 C 51.8333,25.1667 51.8333,25.1667 50.5,24.5 Z"/></g>
<g><path style="opacity:0.004" fill="#fefffe" d="M 24.5,25.5 C 24.8333,25.5 25.1667,25.5 25.5,25.5C 25.5,25.8333 25.5,26.1667 25.5,26.5C 25.1667,26.1667 24.8333,25.8333 24.5,25.5 Z"/></g>
<g><path style="opacity:0.008" fill="#ffadaa" d="M 25.5,26.5 C 27.1992,26.3398 28.8659,26.5065 30.5,27C 28.6131,27.7796 26.9464,27.6129 25.5,26.5 Z"/></g>
<g><path style="opacity:0.008" fill="#ffdcd9" d="M 43.5,27.5 C 44.9464,26.3871 46.6131,26.2204 48.5,27C 46.8659,27.4935 45.1992,27.6602 43.5,27.5 Z"/></g>
<g><path style="opacity:0.165" fill="#f5d2c0" d="M 32.5,26.5 C 32.8333,26.5 33.1667,26.5 33.5,26.5C 36.5719,26.1826 39.5719,26.5159 42.5,27.5C 38.8333,28.8333 35.1667,28.8333 31.5,27.5C 31.6236,26.8933 31.9569,26.56 32.5,26.5 Z"/></g>
</svg>
